<?xml version="1.0" encoding="UTF-8" standalone="no"?>
<!-- Created with Inkscape (http://www.inkscape.org/) -->

<svg
   xmlns:dc="http://purl.org/dc/elements/1.1/"
   xmlns:cc="http://creativecommons.org/ns#"
   xmlns:rdf="http://www.w3.org/1999/02/22-rdf-syntax-ns#"
   xmlns:svg="http://www.w3.org/2000/svg"
   xmlns="http://www.w3.org/2000/svg"
   xmlns:sodipodi="http://sodipodi.sourceforge.net/DTD/sodipodi-0.dtd"
   xmlns:inkscape="http://www.inkscape.org/namespaces/inkscape"
   width="64"
   height="20"
   id="svg2985"
   version="1.1"
   inkscape:version="0.48.4 r9939"
   sodipodi:docname="botao_l.svg">
  <defs
     id="defs2987" />
  <sodipodi:namedview
     id="base"
     pagecolor="#ffffff"
     bordercolor="#666666"
     borderopacity="1.0"
     inkscape:pageopacity="0.0"
     inkscape:pageshadow="2"
     inkscape:zoom="5.5"
     inkscape:cx="32"
     inkscape:cy="32"
     inkscape:current-layer="layer1"
     showgrid="true"
     inkscape:document-units="px"
     inkscape:grid-bbox="true"
     inkscape:window-width="1366"
     inkscape:window-height="744"
     inkscape:window-x="0"
     inkscape:window-y="24"
     inkscape:window-maximized="1" />
  <metadata
     id="metadata2990">
    <rdf:RDF>
      <cc:Work
         rdf:about="">
        <dc:format>image/svg+xml</dc:format>
        <dc:type
           rdf:resource="http://purl.org/dc/dcmitype/StillImage" />
        <dc:title />
      </cc:Work>
    </rdf:RDF>
  </metadata>
  <g
     id="layer1"
     inkscape:label="Layer 1"
     inkscape:groupmode="layer"
     transform="translate(0,-44)">
    <path
       style="fill:#241c1c;stroke:none"
       d="M 18.28125 0 C 9.2558213 0 2 2.1866136 2 4.90625 L 2 15.09375 C 2 17.813386 9.2558213 20 18.28125 20 L 45.71875 20 C 54.744179 20 62 17.813386 62 15.09375 L 62 4.90625 C 62 2.1866136 54.744179 0 45.71875 0 L 18.28125 0 z M 24.21875 1 L 32.5625 1 L 33.4375 1 C 34.350047 1 34.8125 1.3787248 34.8125 2.09375 C 34.8125 3.0885676 34.121434 3.1875 32.5625 3.1875 L 29.4375 3.1875 L 29.4375 16.84375 L 39.34375 16.84375 L 39.34375 12.875 C 39.34375 11.569302 39.477544 11.0625 40.65625 11.0625 C 41.911002 11.0625 42 11.631478 42 12.875 L 42 17.875 C 42 18.590025 41.492751 19 40.65625 19 L 24.21875 19 L 23.34375 19 C 22.431203 19 22 18.621275 22 17.90625 C 22 16.94252 22.621793 16.84375 24.21875 16.84375 L 26.53125 16.84375 L 26.53125 3.1875 L 24.21875 3.1875 C 22.621793 3.1875 22 3.0574796 22 2.09375 C 22 1.0678443 22.735862 1 24.21875 1 z "
       transform="translate(0,44)"
       id="rect3020" />
  </g>
</svg>
