<?xml version="1.0" encoding="UTF-8" standalone="no"?>
<!-- Created with Inkscape (http://www.inkscape.org/) -->

<svg
   xmlns:dc="http://purl.org/dc/elements/1.1/"
   xmlns:cc="http://creativecommons.org/ns#"
   xmlns:rdf="http://www.w3.org/1999/02/22-rdf-syntax-ns#"
   xmlns:svg="http://www.w3.org/2000/svg"
   xmlns="http://www.w3.org/2000/svg"
   xmlns:sodipodi="http://sodipodi.sourceforge.net/DTD/sodipodi-0.dtd"
   xmlns:inkscape="http://www.inkscape.org/namespaces/inkscape"
   width="64"
   height="20"
   id="svg3072"
   version="1.1"
   inkscape:version="0.48.4 r9939"
   sodipodi:docname="botao_r.svg">
  <defs
     id="defs3074" />
  <sodipodi:namedview
     id="base"
     pagecolor="#ffffff"
     bordercolor="#666666"
     borderopacity="1.0"
     inkscape:pageopacity="0.0"
     inkscape:pageshadow="2"
     inkscape:zoom="5.5"
     inkscape:cx="32"
     inkscape:cy="32"
     inkscape:current-layer="layer1"
     showgrid="true"
     inkscape:document-units="px"
     inkscape:grid-bbox="true"
     inkscape:window-width="1366"
     inkscape:window-height="744"
     inkscape:window-x="0"
     inkscape:window-y="24"
     inkscape:window-maximized="1" />
  <metadata
     id="metadata3077">
    <rdf:RDF>
      <cc:Work
         rdf:about="">
        <dc:format>image/svg+xml</dc:format>
        <dc:type
           rdf:resource="http://purl.org/dc/dcmitype/StillImage" />
        <dc:title />
      </cc:Work>
    </rdf:RDF>
  </metadata>
  <g
     id="layer1"
     inkscape:label="Layer 1"
     inkscape:groupmode="layer"
     transform="translate(0,-44)">
    <path
       style="fill:#241c1c;stroke:none"
       d="M 18.28125 0 C 9.2558213 0 2 2.1866136 2 4.90625 L 2 15.09375 C 2 17.813386 9.2558213 20 18.28125 20 L 45.71875 20 C 54.744179 20 62 17.813386 62 15.09375 L 62 4.90625 C 62 2.1866136 54.744179 0 45.71875 0 L 18.28125 0 z M 24.21875 1 L 31.625 1 C 34.605248 1 36.790453 1.100066 38.40625 2.3125 C 39.627075 3.2451415 40.375 4.6641855 40.375 6.1875 C 40.375 8.4880157 38.698998 10.253401 35.71875 10.90625 C 36.400976 11.279307 36.823777 11.690091 37.21875 12.1875 L 40.75 16.84375 L 41.3125 16.84375 C 42.533325 16.84375 43 17.066873 43 17.90625 C 43 18.621275 42.607102 19 41.78125 19 L 39.84375 19 C 38.910178 19 38.610412 18.527201 38 17.75 L 34.59375 13.34375 C 33.337019 11.696083 32.740797 11.1875 31.125 11.1875 L 28.8125 11.1875 L 28.8125 16.84375 C 28.8125 16.84375 29.210055 16.8125 30 16.8125 C 31.292638 16.8125 31.875 17.097961 31.875 17.90625 C 31.875 18.838892 31.345825 19 30.125 19 L 24.21875 19 C 23.428805 19 23 18.621275 23 17.90625 C 23 17.097961 23.422802 16.84375 24.5 16.84375 L 25.09375 16.84375 L 26.09375 16.84375 L 26.09375 3.0625 L 25.09375 3.0625 L 24.4375 3.0625 C 23.432115 3.0625 23 2.7462752 23 2.03125 C 23 1.3473129 23.428805 1 24.21875 1 z M 28.8125 3.0625 L 28.8125 9.1875 L 32.4375 9.1875 C 35.705001 9.1875 37.375 8.1146352 37.375 6.125 C 37.375 4.0731887 35.794095 3.0625 32.5625 3.0625 L 28.8125 3.0625 z "
       transform="translate(0,44)"
       id="rect3020" />
  </g>
</svg>
