<?xml version="1.0" encoding="UTF-8" standalone="no"?>
<!-- Created with Inkscape (http://www.inkscape.org/) -->

<svg
   xmlns:dc="http://purl.org/dc/elements/1.1/"
   xmlns:cc="http://creativecommons.org/ns#"
   xmlns:rdf="http://www.w3.org/1999/02/22-rdf-syntax-ns#"
   xmlns:svg="http://www.w3.org/2000/svg"
   xmlns="http://www.w3.org/2000/svg"
   xmlns:sodipodi="http://sodipodi.sourceforge.net/DTD/sodipodi-0.dtd"
   xmlns:inkscape="http://www.inkscape.org/namespaces/inkscape"
   width="64"
   height="20"
   id="svg3072"
   version="1.1"
   inkscape:version="0.48.4 r9939"
   sodipodi:docname="botao_select.svg">
  <defs
     id="defs3074" />
  <sodipodi:namedview
     id="base"
     pagecolor="#ffffff"
     bordercolor="#666666"
     borderopacity="1.0"
     inkscape:pageopacity="0.0"
     inkscape:pageshadow="2"
     inkscape:zoom="5.5"
     inkscape:cx="32"
     inkscape:cy="32"
     inkscape:current-layer="layer1"
     showgrid="true"
     inkscape:document-units="px"
     inkscape:grid-bbox="true"
     inkscape:window-width="1366"
     inkscape:window-height="744"
     inkscape:window-x="0"
     inkscape:window-y="24"
     inkscape:window-maximized="1" />
  <metadata
     id="metadata3077">
    <rdf:RDF>
      <cc:Work
         rdf:about="">
        <dc:format>image/svg+xml</dc:format>
        <dc:type
           rdf:resource="http://purl.org/dc/dcmitype/StillImage" />
        <dc:title />
      </cc:Work>
    </rdf:RDF>
  </metadata>
  <g
     id="layer1"
     inkscape:label="Layer 1"
     inkscape:groupmode="layer"
     transform="translate(0,-44)">
    <path
       style="fill:#241c1c;stroke:none"
       d="M 18.28125 0 C 9.2558213 0 2 2.1866136 2 4.90625 L 2 15.09375 C 2 17.813386 9.2558213 20 18.28125 20 L 45.71875 20 C 54.744179 20 62 17.813386 62 15.09375 L 62 4.90625 C 62 2.1866136 54.744179 0 45.71875 0 L 18.28125 0 z M 25.15625 4.3125 L 27.75 4.3125 C 28.056291 4.3125 28.1875 4.4253028 28.1875 4.625 L 28.1875 13.78125 L 30.65625 13.78125 C 31.059265 13.78125 31.25 13.944356 31.25 14.34375 C 31.25 14.80971 31.061247 14.9375 30.59375 14.9375 L 24.78125 14.9375 C 24.362114 14.9375 24.15625 14.726503 24.15625 14.34375 C 24.15625 13.960997 24.377244 13.78125 24.8125 13.78125 L 27 13.78125 L 27 5.46875 L 25.65625 5.46875 C 25.478923 5.46875 25.330603 5.46875 25.25 5.46875 C 24.734141 5.46875 24.53125 5.2910359 24.53125 4.875 C 24.53125 4.492247 24.737114 4.3125 25.15625 4.3125 z M 8.15625 5.03125 C 8.8010741 5.03125 9.4308229 5.2004541 10.15625 5.5 C 10.15625 5.1838127 10.301597 5.09375 10.65625 5.09375 C 11.220471 5.09375 11.280259 5.2860727 11.3125 5.71875 L 11.40625 7.40625 L 11.40625 7.5 C 11.40625 7.882753 11.183274 8.09375 10.8125 8.09375 C 10.183797 8.09375 10.276033 7.4846345 9.9375 6.96875 C 9.5989674 6.4528655 8.9320213 6.125 8.09375 6.125 C 6.8041018 6.125 5.9375 6.8432309 5.9375 7.875 C 5.9375 8.6904304 6.5409548 9.1773356 7.75 9.34375 L 9 9.53125 C 10.837749 9.7808715 11.78125 10.687738 11.78125 12.21875 C 11.78125 14.016025 10.364773 15.21875 8.15625 15.21875 C 7.3502199 15.21875 6.6336595 15.022362 5.84375 14.65625 C 5.7953882 15.138852 5.6540063 15.3125 5.21875 15.3125 C 4.7673731 15.3125 4.5634912 15.0512 4.53125 14.46875 L 4.4375 12.5625 L 4.4375 12.40625 C 4.4375 11.94029 4.5476319 11.71875 5.03125 11.71875 C 5.6921947 11.71875 5.6160792 12.338408 5.90625 12.9375 C 6.2447826 13.653082 7.0903078 14.125 8.21875 14.125 C 9.6212424 14.125 10.5 13.373486 10.5 12.375 C 10.5 11.526287 9.9682273 10.993523 8.96875 10.84375 L 7.8125 10.65625 C 5.7168217 10.356704 4.6875 9.5683608 4.6875 7.9375 C 4.6875 6.3232807 6.1250541 5.03125 8.15625 5.03125 z M 55.03125 5.09375 C 55.595471 5.09375 55.6875 5.4512111 55.6875 6.25 L 55.6875 7.875 L 58.78125 7.875 C 59.280989 7.875 59.5 8.0527141 59.5 8.46875 C 59.5 8.851503 59.279006 9.03125 58.84375 9.03125 L 55.65625 9.03125 L 55.65625 11.75 C 55.65625 13.048032 55.769878 13.90625 57.15625 13.90625 C 58.429778 13.90625 59.465047 13.03125 60.09375 13.03125 C 60.383921 13.03125 60.625 13.325454 60.625 13.625 C 60.625 14.007753 60.361592 14.23577 59.78125 14.46875 C 58.797893 14.868144 57.960298 15.09375 57.21875 15.09375 C 56.009705 15.09375 55.170127 14.69043 54.71875 13.875 C 54.4447 13.392398 54.4375 12.748865 54.4375 12 L 54.4375 11.75 L 54.4375 9.03125 L 53.125 9.03125 C 52.689744 9.03125 52.46875 8.8681445 52.46875 8.46875 C 52.46875 7.936224 52.804832 7.875 53.5625 7.875 L 54.4375 7.875 L 54.4375 6.21875 L 54.4375 5.78125 C 54.4375 5.3319312 54.612114 5.09375 55.03125 5.09375 z M 17.90625 7.21875 C 20.292099 7.21875 21.78125 8.9673334 21.78125 10.78125 C 21.78125 11.546756 21.435986 11.53125 20.46875 11.53125 L 15.1875 11.53125 C 15.268103 13.095545 16.246819 14 17.875 14 C 19.47094 14 20.478194 12.96875 21.1875 12.96875 C 21.493791 12.96875 21.75 13.200454 21.75 13.5 C 21.75 13.832829 21.498747 14.07952 21.03125 14.3125 C 19.95117 14.861667 18.81396 15.15625 17.75 15.15625 C 15.315789 15.15625 13.8125 13.5859 13.8125 11.15625 C 13.8125 8.8264489 15.472039 7.21875 17.90625 7.21875 z M 37.3125 7.21875 C 39.698349 7.21875 41.15625 8.9673334 41.15625 10.78125 C 41.15625 11.546756 40.810986 11.53125 39.84375 11.53125 L 34.5625 11.53125 C 34.643103 13.095545 35.621819 14 37.25 14 C 38.84594 14 39.884444 12.96875 40.59375 12.96875 C 40.900041 12.96875 41.125 13.200454 41.125 13.5 C 41.125 13.832829 40.904997 14.07952 40.4375 14.3125 C 39.35742 14.861667 38.22021 15.15625 37.15625 15.15625 C 34.722039 15.15625 33.1875 13.5859 33.1875 11.15625 C 33.1875 8.8264489 34.878289 7.21875 37.3125 7.21875 z M 46.8125 7.25 C 47.634651 7.25 48.441987 7.4569312 49.3125 7.90625 L 49.3125 7.875 C 49.3125 7.5088884 49.503235 7.375 49.90625 7.375 C 50.389868 7.375 50.46875 7.6760597 50.46875 8.375 L 50.46875 9.875 C 50.46875 10.274394 50.261894 10.46875 49.875 10.46875 C 49.536467 10.46875 49.366809 10.293069 49.125 9.84375 C 48.641382 8.9617539 47.903745 8.5 46.96875 8.5 C 45.340569 8.5 44.21875 9.623205 44.21875 11.1875 C 44.21875 12.801719 45.261949 13.9375 46.90625 13.9375 C 47.534953 13.9375 48.185779 13.695253 48.75 13.3125 C 49.233618 12.979671 49.549614 12.59375 49.96875 12.59375 C 50.291162 12.59375 50.5 12.823421 50.5 13.15625 C 50.5 13.921756 48.745981 15.15625 46.84375 15.15625 C 44.554624 15.15625 42.84375 13.434094 42.84375 11.1875 C 42.84375 8.9409061 44.555616 7.25 46.8125 7.25 z M 17.90625 8.34375 C 16.519878 8.34375 15.525041 9.1207937 15.21875 10.46875 L 20.34375 10.46875 C 20.198665 9.170718 19.179778 8.34375 17.90625 8.34375 z M 37.3125 8.34375 C 35.926128 8.34375 34.900041 9.1207937 34.59375 10.46875 L 39.71875 10.46875 C 39.573665 9.170718 38.586028 8.34375 37.3125 8.34375 z "
       transform="translate(0,44)"
       id="rect3020" />
  </g>
</svg>
