<?xml version="1.0" encoding="UTF-8" standalone="no"?>
<!-- Created with Inkscape (http://www.inkscape.org/) -->

<svg
   xmlns:dc="http://purl.org/dc/elements/1.1/"
   xmlns:cc="http://creativecommons.org/ns#"
   xmlns:rdf="http://www.w3.org/1999/02/22-rdf-syntax-ns#"
   xmlns:svg="http://www.w3.org/2000/svg"
   xmlns="http://www.w3.org/2000/svg"
   xmlns:sodipodi="http://sodipodi.sourceforge.net/DTD/sodipodi-0.dtd"
   xmlns:inkscape="http://www.inkscape.org/namespaces/inkscape"
   width="64px"
   height="64px"
   id="svg2985"
   version="1.1"
   inkscape:version="0.48.4 r9939"
   sodipodi:docname="botao_a.svg">
  <defs
     id="defs2987" />
  <sodipodi:namedview
     id="base"
     pagecolor="#ffffff"
     bordercolor="#666666"
     borderopacity="1.0"
     inkscape:pageopacity="0.0"
     inkscape:pageshadow="2"
     inkscape:zoom="5.5"
     inkscape:cx="32"
     inkscape:cy="32"
     inkscape:current-layer="layer1"
     showgrid="true"
     inkscape:document-units="px"
     inkscape:grid-bbox="true"
     inkscape:window-width="1366"
     inkscape:window-height="744"
     inkscape:window-x="0"
     inkscape:window-y="24"
     inkscape:window-maximized="1" />
  <metadata
     id="metadata2990">
    <rdf:RDF>
      <cc:Work
         rdf:about="">
        <dc:format>image/svg+xml</dc:format>
        <dc:type
           rdf:resource="http://purl.org/dc/dcmitype/StillImage" />
        <dc:title />
      </cc:Work>
    </rdf:RDF>
  </metadata>
  <g
     id="layer1"
     inkscape:label="Layer 1"
     inkscape:groupmode="layer">
    <path
       style="fill:#241c1c;stroke:none"
       d="M 32 2 C 15.431458 2 2 15.431458 2 32 C 2 48.568542 15.431458 62 32 62 C 48.568542 62 62 48.568542 62 32 C 62 15.431458 48.568542 2 32 2 z M 24.03125 10 L 33.21875 10 C 35.069988 10 35.952997 10.070544 36.8125 12.28125 L 49.4375 45.21875 L 49.96875 45.21875 C 52.216682 45.21875 53 45.728467 53 47.59375 C 53 49.528118 52.20945 50 50.09375 50 L 41.3125 50 C 38.73399 50 37.46875 49.804456 37.46875 47.59375 C 37.46875 45.659382 38.581356 45.21875 41.09375 45.21875 L 44.0625 45.21875 L 40.96875 37.21875 L 24.5625 37.21875 L 21.78125 45.21875 L 24.90625 45.21875 C 27.418644 45.21875 28.59375 45.659382 28.59375 47.59375 C 28.59375 49.804456 27.356144 50 24.84375 50 L 16.375 50 C 13.928721 50 13 49.666287 13 47.59375 C 13 45.797552 13.849434 45.21875 16.03125 45.21875 L 16.84375 45.21875 L 27.8125 14.84375 L 23.125 14.84375 C 20.678721 14.84375 19.53125 14.271533 19.53125 12.40625 C 19.53125 9.9882906 20.989931 10 24.03125 10 z M 32.375 14.84375 L 26.15625 32.71875 L 39.375 32.71875 L 32.375 14.84375 z "
       id="path2993" />
  </g>
</svg>
