<?xml version="1.0" encoding="UTF-8" standalone="no"?>
<!-- Created with Inkscape (http://www.inkscape.org/) -->

<svg
   xmlns:dc="http://purl.org/dc/elements/1.1/"
   xmlns:cc="http://creativecommons.org/ns#"
   xmlns:rdf="http://www.w3.org/1999/02/22-rdf-syntax-ns#"
   xmlns:svg="http://www.w3.org/2000/svg"
   xmlns="http://www.w3.org/2000/svg"
   xmlns:sodipodi="http://sodipodi.sourceforge.net/DTD/sodipodi-0.dtd"
   xmlns:inkscape="http://www.inkscape.org/namespaces/inkscape"
   width="64"
   height="20"
   id="svg3072"
   version="1.1"
   inkscape:version="0.48.4 r9939"
   sodipodi:docname="botao_start.svg">
  <defs
     id="defs3074" />
  <sodipodi:namedview
     id="base"
     pagecolor="#ffffff"
     bordercolor="#666666"
     borderopacity="1.0"
     inkscape:pageopacity="0.0"
     inkscape:pageshadow="2"
     inkscape:zoom="5.5"
     inkscape:cx="32"
     inkscape:cy="32"
     inkscape:current-layer="layer1"
     showgrid="true"
     inkscape:document-units="px"
     inkscape:grid-bbox="true"
     inkscape:window-width="1366"
     inkscape:window-height="744"
     inkscape:window-x="0"
     inkscape:window-y="24"
     inkscape:window-maximized="1" />
  <metadata
     id="metadata3077">
    <rdf:RDF>
      <cc:Work
         rdf:about="">
        <dc:format>image/svg+xml</dc:format>
        <dc:type
           rdf:resource="http://purl.org/dc/dcmitype/StillImage" />
        <dc:title />
      </cc:Work>
    </rdf:RDF>
  </metadata>
  <g
     id="layer1"
     inkscape:label="Layer 1"
     inkscape:groupmode="layer"
     transform="translate(0,-44)">
    <path
       style="fill:#241c1c;stroke:none"
       d="M 18.28125 0 C 9.2558213 0 2 2.1866136 2 4.90625 L 2 15.09375 C 2 17.813386 9.2558213 20 18.28125 20 L 45.71875 20 C 54.744179 20 62 17.813386 62 15.09375 L 62 4.90625 C 62 2.1866136 54.744179 0 45.71875 0 L 18.28125 0 z M 8.59375 4.375 C 9.3675389 4.375 10.098237 4.5546119 10.96875 4.875 C 10.96875 4.5368126 11.168166 4.4375 11.59375 4.4375 C 12.270815 4.4375 12.305061 4.6309673 12.34375 5.09375 L 12.5 6.90625 L 12.5 7 C 12.5 7.4093847 12.226179 7.65625 11.78125 7.65625 C 11.026806 7.65625 11.124989 6.9892794 10.71875 6.4375 C 10.312511 5.8857206 9.5059256 5.53125 8.5 5.53125 C 6.9524221 5.53125 5.9375 6.3339412 5.9375 7.4375 C 5.9375 8.3096675 6.6428958 8.8220066 8.09375 9 L 9.59375 9.1875 C 11.799048 9.45449 12.9375 10.424961 12.9375 12.0625 C 12.9375 13.984828 11.243977 15.28125 8.59375 15.28125 C 7.6265138 15.28125 6.7603914 15.079085 5.8125 14.6875 C 5.7544658 15.203681 5.5535575 15.375 5.03125 15.375 C 4.4895978 15.375 4.2574394 15.091727 4.21875 14.46875 L 4.125 12.4375 L 4.125 12.28125 C 4.125 11.782869 4.2634083 11.53125 4.84375 11.53125 C 5.6368837 11.53125 5.558045 12.202974 5.90625 12.84375 C 6.3124892 13.609121 7.3021194 14.09375 8.65625 14.09375 C 10.339241 14.09375 11.375 13.28671 11.375 12.21875 C 11.375 11.310984 10.761873 10.753944 9.5625 10.59375 L 8.15625 10.40625 C 5.641436 10.085862 4.40625 9.244335 4.40625 7.5 C 4.40625 5.7734644 6.1563149 4.375 8.59375 4.375 z M 18.3125 4.46875 C 18.989565 4.46875 19.0625 4.8018819 19.0625 5.65625 L 19.0625 7.4375 L 22.78125 7.4375 C 23.380936 7.4375 23.65625 7.6175166 23.65625 8.0625 C 23.65625 8.4718847 23.397308 8.65625 22.875 8.65625 L 19.03125 8.65625 L 19.03125 11.5625 C 19.03125 12.950848 19.148854 13.875 20.8125 13.875 C 22.340733 13.875 23.620556 12.9375 24.375 12.9375 C 24.723205 12.9375 25.03125 13.242112 25.03125 13.5625 C 25.03125 13.971885 24.66516 14.219559 23.96875 14.46875 C 22.788722 14.895934 21.796107 15.125 20.90625 15.125 C 19.455396 15.125 18.447902 14.715917 17.90625 13.84375 C 17.57739 13.327569 17.5625 12.61347 17.5625 11.8125 L 17.5625 11.5625 L 17.5625 8.65625 L 15.96875 8.65625 C 15.446442 8.65625 15.21875 8.4896841 15.21875 8.0625 C 15.21875 7.4929212 15.622048 7.4375 16.53125 7.4375 L 17.5625 7.4375 L 17.5625 5.65625 L 17.5625 5.1875 C 17.5625 4.7069179 17.809537 4.46875 18.3125 4.46875 z M 53.21875 4.46875 C 53.895815 4.46875 53.96875 4.8018819 53.96875 5.65625 L 53.96875 7.4375 L 57.6875 7.4375 C 58.287186 7.4375 58.5625 7.6175166 58.5625 8.0625 C 58.5625 8.4718847 58.303558 8.65625 57.78125 8.65625 L 53.9375 8.65625 L 53.9375 11.5625 C 53.9375 12.950848 54.055104 13.875 55.71875 13.875 C 57.246983 13.875 58.526806 12.9375 59.28125 12.9375 C 59.629455 12.9375 59.9375 13.242112 59.9375 13.5625 C 59.9375 13.971885 59.57141 14.219559 58.875 14.46875 C 57.694972 14.895934 56.702357 15.125 55.8125 15.125 C 54.361646 15.125 53.385402 14.715917 52.84375 13.84375 C 52.51489 13.327569 52.46875 12.61347 52.46875 11.8125 L 52.46875 11.5625 L 52.46875 8.65625 L 50.90625 8.65625 C 50.383942 8.65625 50.125 8.4896841 50.125 8.0625 C 50.125 7.4929212 50.528298 7.4375 51.4375 7.4375 L 52.46875 7.4375 L 52.46875 5.65625 L 52.46875 5.1875 C 52.46875 4.7069179 52.715787 4.46875 53.21875 4.46875 z M 31.0625 6.75 C 31.304234 6.7317835 31.57776 6.75 31.84375 6.75 C 34.26184 6.75 35.375 7.7121783 35.375 9.8125 L 35.375 13.75 L 35.875 13.75 C 36.668134 13.75 36.96875 13.827569 36.96875 14.34375 C 36.96875 14.753135 36.721713 14.96875 36.21875 14.96875 L 34.75 14.96875 C 34.401795 14.96875 34.171129 14.780036 34.09375 14.40625 L 34 13.875 C 32.97473 14.729368 31.733596 15.1875 30.4375 15.1875 C 28.541717 15.1875 27.3125 14.124493 27.3125 12.59375 C 27.3125 10.796017 28.882515 9.71875 31.6875 9.71875 C 32.422599 9.71875 33.163711 9.7907566 33.9375 9.96875 L 33.9375 9.90625 C 33.9375 8.5712998 33.263354 7.96875 31.8125 7.96875 C 30.477714 7.96875 29.703849 8.6875 28.96875 8.6875 C 28.620545 8.6875 28.3125 8.4137334 28.3125 7.96875 C 28.3125 7.4392197 29.370365 6.8775158 31.0625 6.75 z M 46.5 6.75 C 47.680028 6.75 48.375 7.2029739 48.375 7.84375 C 48.375 8.2709341 47.968739 8.6875 47.5625 8.6875 C 47.059537 8.6875 46.641349 8.15625 45.90625 8.15625 C 44.861635 8.15625 43.788657 8.8390991 42.53125 10.15625 L 42.53125 13.75 L 45.6875 13.75 C 46.171118 13.75 46.40625 13.916566 46.40625 14.34375 C 46.40625 14.842131 46.185997 14.96875 45.625 14.96875 L 39.4375 14.96875 C 38.934537 14.96875 38.6875 14.753135 38.6875 14.34375 C 38.6875 13.934365 38.946442 13.75 39.46875 13.75 L 41.125 13.75 L 41.125 8.1875 L 40.5 8.1875 L 40 8.1875 C 39.380969 8.1875 39.125 8.0074834 39.125 7.5625 C 39.125 7.1531153 39.372037 6.9375 39.875 6.9375 L 42.03125 6.9375 C 42.379455 6.9375 42.53125 7.0633093 42.53125 7.3125 L 42.53125 8.78125 C 43.711278 7.4107011 44.991112 6.75 46.5 6.75 z M 31.9375 10.84375 C 29.925649 10.84375 28.8125 11.521037 28.8125 12.5 C 28.8125 13.265371 29.584851 13.84375 30.6875 13.84375 C 32.389836 13.84375 33.9375 12.845671 33.9375 12.0625 L 33.9375 11.125 C 33.299124 10.929207 32.63391 10.84375 31.9375 10.84375 z "
       transform="translate(0,44)"
       id="rect3020" />
  </g>
</svg>
